UNKNOWN
version=1
nRows=35
nColumns=10
inDegrees=no
endheader
time	hip_adduction_r	glut_max1_r	glut_max2_r	glut_max3_r	glut_med1_r	glut_med2_r	glut_med3_r	iliacus_r	psoas_r
      0.00000000	    -40.00000000	     -0.03453634	      0.00520757	      0.06012279	     -0.04933284	     -0.05804183	     -0.05576409	      0.00265033	      0.01250327
      1.00000000	    -39.19191919	     -0.03434174	      0.00510398	      0.06036186	     -0.04914144	     -0.05811288	     -0.05611495	      0.00255713	      0.01258946
      2.00000000	    -38.38383838	     -0.03414444	      0.00499901	      0.06059411	     -0.04894534	     -0.05817084	     -0.05644499	      0.00246322	      0.01267392
      3.00000000	    -37.57575758	     -0.03394447	      0.00489267	      0.06081939	     -0.04874464	     -0.05821602	     -0.05675476	      0.00236861	      0.01275663
      4.00000000	    -36.76767677	     -0.03374188	      0.00478499	      0.06103756	     -0.04853944	     -0.05824870	     -0.05704481	      0.00227333	      0.01283756
      5.00000000	    -35.95959596	     -0.03353672	      0.00467600	      0.06124848	     -0.04832982	     -0.05826919	     -0.05731564	      0.00217740	      0.01291669
      6.00000000	    -35.15151515	     -0.03332901	      0.00456572	      0.06145198	     -0.04811586	     -0.05827775	     -0.05756779	      0.00208085	      0.01299399
      7.00000000	    -34.34343434	     -0.03311879	      0.00445417	      0.06164789	     -0.04789766	     -0.05827466	     -0.05780173	      0.00198371	      0.01306944
      8.00000000	    -33.53535354	     -0.03290612	      0.00434138	      0.06183607	     -0.04767528	     -0.05826017	     -0.05801796	      0.00188600	      0.01314301
      9.00000000	    -32.72727273	     -0.03269101	      0.00422738	      0.06201632	     -0.04744880	     -0.05823455	     -0.05821695	      0.00178776	      0.01321467
     10.00000000	    -31.91919192	     -0.03247351	      0.00411220	      0.06218847	     -0.04721830	     -0.05819804	     -0.05839915	      0.00168900	      0.01328440
     11.00000000	    -31.11111111	     -0.03225365	      0.00399586	      0.06235234	     -0.04698385	     -0.05815087	     -0.05856501	      0.00158975	      0.01335217
     12.00000000	    -30.30303030	     -0.03203147	      0.00387840	      0.06250772	     -0.04674551	     -0.05809330	     -0.05871496	      0.00149005	      0.01341795
     13.00000000	    -29.49494949	     -0.03180700	      0.00375984	      0.06265441	     -0.04650335	     -0.05802553	     -0.05884942	      0.00138991	      0.01348171
     14.00000000	    -28.68686869	     -0.03158027	      0.00364022	      0.06279222	     -0.04625743	     -0.05794779	     -0.05896879	      0.00128938	      0.01354343
     15.00000000	    -27.87878788	     -0.03135131	      0.00351956	      0.06292091	     -0.04600783	     -0.05786029	     -0.05907347	      0.00118847	      0.01360308
     16.00000000	    -27.07070707	     -0.03112016	      0.00339790	      0.06304026	     -0.04575459	     -0.05776324	     -0.05916384	      0.00108722	      0.01366062
     17.00000000	    -26.26262626	     -0.03088684	      0.00327527	      0.06315005	     -0.04549777	     -0.05765685	     -0.05924026	      0.00098566	      0.01371604
     18.00000000	    -25.45454545	     -0.03065139	      0.00315170	      0.06325001	     -0.04523744	     -0.05754130	     -0.05930310	      0.00088380	      0.01376929
     19.00000000	    -24.64646465	     -0.03041384	      0.00302722	      0.06333991	     -0.04497365	     -0.05741678	     -0.05935270	      0.00078170	      0.01382036
     20.00000000	    -23.83838384	     -0.03017421	      0.00290188	      0.06341947	     -0.04470644	     -0.05728349	     -0.05938940	      0.00067936	      0.01386921
     21.00000000	    -23.03030303	     -0.02993253	      0.00277569	      0.06348841	     -0.04443588	     -0.05714159	     -0.05941351	      0.00057683	      0.01391581
     22.00000000	    -22.22222222	     -0.02968883	      0.00264870	      0.06354647	     -0.04416201	     -0.05699127	     -0.05942535	      0.00047413	      0.01396014
     23.00000000	    -21.41414141	     -0.02944314	      0.00252095	      0.06359332	     -0.04388489	     -0.05683269	     -0.05942523	      0.00037129	      0.01400215
     24.00000000	    -20.60606061	     -0.02919549	      0.00239246	      0.06362867	     -0.04360456	     -0.05666602	     -0.05941343	      0.00026834	      0.01404183
     25.00000000	    -19.79797980	     -0.02894590	      0.00226328	      0.06365219	     -0.04332106	     -0.05649141	     -0.05939024	      0.00016532	      0.01407914
     26.00000000	    -18.98989899	     -0.02869440	      0.00213344	      0.06366354	     -0.04303445	     -0.05630903	     -0.05935594	      0.00006224	      0.01411405
     27.00000000	    -18.18181818	     -0.02844102	      0.00200297	      0.06366238	     -0.04274476	     -0.05611901	     -0.05931079	     -0.00004085	      0.01414652
     28.00000000	    -17.37373737	     -0.02818577	      0.00187192	      0.06364833	     -0.04245205	     -0.05592152	     -0.05925504	     -0.00014393	      0.01417653
     29.00000000	    -16.56565657	     -0.02792870	      0.00174032	      0.06362102	     -0.04215635	     -0.05571668	     -0.05918895	     -0.00024697	      0.01420405
     30.00000000	    -15.75757576	     -0.02766981	      0.00160820	      0.06358005	     -0.04185771	     -0.05550465	     -0.05911275	     -0.00034993	      0.01422904
     31.00000000	    -14.94949495	     -0.02740914	      0.00147562	      0.06352501	     -0.04155617	     -0.05528555	     -0.05902668	     -0.00045280	      0.01425147
     32.00000000	    -14.14141414	     -0.02714671	      0.00134260	      0.06345546	     -0.04125176	     -0.05505951	     -0.05893096	     -0.00055553	      0.01427130
     33.00000000	    -13.33333333	     -0.02688254	      0.00120919	      0.06337096	     -0.04094453	     -0.05482667	     -0.05882581	     -0.00065810	      0.01428851
     34.00000000	    -12.52525253	     -0.02661666	      0.00107542	      0.06327104	     -0.04063452	     -0.05458716	     -0.05871144	     -0.00076048	      0.01430306
